<?xml version="1.0" encoding="utf-8"?>
<!-- Generator: Adobe Illustrator 25.2.3, SVG Export Plug-In . SVG Version: 6.00 Build 0)  -->
<svg version="1.1" id="Layer_1" xmlns="http://www.w3.org/2000/svg" xmlns:xlink="http://www.w3.org/1999/xlink" x="0px" y="0px"
	 viewBox="0 0 500 375" style="enable-background:new 0 0 500 375;" xml:space="preserve">
<style type="text/css">
	.st0{fill:url(#SVGID_1_);}
	.st1{fill:#19184C;}
	.st2{fill:#2B3278;}
	.st3{fill:#3D121D;}
	.st4{fill:url(#SVGID_2_);}
	.st5{clip-path:url(#SVGID_4_);}
	.st6{fill:#911D58;}
	.st7{fill:#EE4389;}
	.st8{fill:url(#SVGID_5_);}
	.st9{fill:url(#SVGID_6_);}
	.st10{fill:url(#SVGID_7_);}
	.st11{fill:#5A67AF;}
	.st12{fill:#959ECF;}
	.st13{fill:#FFFFFF;}
</style>
<g>
	
		<linearGradient id="SVGID_1_" gradientUnits="userSpaceOnUse" x1="179.4566" y1="9.9632" x2="326.5717" y2="249.7063" gradientTransform="matrix(1 0 0 -1 0 375)">
		<stop  offset="0" style="stop-color:#A1A1BC"/>
		<stop  offset="1" style="stop-color:#FFFFFF;stop-opacity:0"/>
	</linearGradient>
	<path class="st0" d="M21.73,261.07l168,97.13c24.69,14.26,55.1,14.28,79.79,0.03L500,225.28L281.08,99.42L21.93,241.91
		C14.43,246.04,14.32,256.78,21.73,261.07z"/>
	<g>
		<path class="st1" d="M250.38,136.12L74.64,34.64c-1.77-1.02-2.73-2.35-2.85-3.69h-0.02v54.05c-0.14,1.55,0.83,3.12,2.86,4.29
			l137.15,79.19c16.17,9.34,36.65,3.39,45.8-12.89c0.05-0.08,0.1-0.16,0.14-0.24C261.62,148.81,258.71,140.93,250.38,136.12z"/>
		<path class="st2" d="M261.54,165.63c-18.07,10.46-43.7,10.36-61.76-0.1l-176.92-101c-1.9-1.1-2.86-2.56-2.86-4v190.95
			c0.05,1.41,1.01,2.81,2.86,3.87l175.45,101.48c18.07,10.44,47.48,10.44,65.55,0c8.72-5.05,12.9-11.66,13.51-18.26
			c0.02-0.22,0.03-192.83,0.03-192.83C277.41,152.6,270.56,160.41,261.54,165.63z"/>
		<path class="st3" d="M20.02,60.35v0.18c0-0.06,0-0.11,0.02-0.18C20.02,60.35,20.02,60.35,20.02,60.35z"/>
		
			<linearGradient id="SVGID_2_" gradientUnits="userSpaceOnUse" x1="20.0155" y1="274.5934" x2="277.4113" y2="274.5934" gradientTransform="matrix(1 0 0 -1 0 375)">
			<stop  offset="8.100000e-07" style="stop-color:#92489C"/>
			<stop  offset="1" style="stop-color:#4A2A7A"/>
		</linearGradient>
		<path class="st4" d="M264.26,128.1L88.52,26.63c-3.84-2.21-10.06-2.21-13.88,0c-3.84,2.21-3.84,5.8,0,8.01l175.74,101.48
			c10.44,6.03,10.44,15.83,0,21.86c-10.44,6.03-27.42,6.03-37.87,0L36.77,56.51c-3.84-2.21-10.06-2.21-13.88,0
			c-3.84,2.21-3.84,5.8,0,8.01l175.74,101.46c18.1,10.44,44.04,15.59,65.64,0C281.21,153.77,282.36,138.55,264.26,128.1z"/>
		<g>
			<path class="st1" d="M277.41,223.33c-0.91,4.35-4.59,9.02-10.6,13.35c-24.35,17.57-51.75,4.21-59.57-0.3l-38.46-22.2
				c-2.67-1.55-6.09-0.62-7.64,2.05c-1.55,2.67-0.62,6.09,2.05,7.64l38.46,22.2c12.31,7.1,25.11,10.65,37.34,10.65
				c12.41,0,32.77-6.48,38.43-17.19V223.33z"/>
		</g>
		<g>
			<path class="st1" d="M277.41,252.96c-0.91,4.35-4.59,9.02-10.6,13.35c-24.35,17.57-51.75,4.21-59.57-0.3l-38.46-22.2
				c-2.67-1.55-6.09-0.62-7.64,2.05c-1.55,2.67-0.62,6.09,2.05,7.64l38.46,22.2c12.31,7.1,25.11,10.65,37.34,10.65
				c12.41,0,32.77-6.48,38.43-17.19V252.96z"/>
		</g>
		<g>
			<path class="st1" d="M277.41,282.61c-0.91,4.35-4.59,9.02-10.6,13.35c-24.35,17.57-51.75,4.21-59.57-0.3l-38.46-22.2
				c-2.67-1.55-6.09-0.62-7.64,2.05c-1.55,2.67-0.62,6.11,2.05,7.64l38.46,22.2c12.31,7.1,25.11,10.65,37.34,10.65
				c12.41,0,32.77-6.48,38.43-17.19V282.61z"/>
		</g>
		<g>
			<g>
				<defs>
					<path id="SVGID_3_" d="M250.38,157.98c-10.44,6.03-27.42,6.03-37.87,0L36.77,56.51c-3.84-2.22-10.06-2.22-13.9,0l51.76-29.89
						L99.28,3.87l151.34,89.01l-0.24,43.24C260.81,142.14,260.81,151.95,250.38,157.98z"/>
				</defs>
				<clipPath id="SVGID_4_">
					<use xlink:href="#SVGID_3_"  style="overflow:visible;"/>
				</clipPath>
				<g class="st5">
					<g>
						<path class="st6" d="M229.08,97.9l-97.53-56.32v111.57l116.73,67.4v-89.39C248.29,117.44,240.96,104.76,229.08,97.9z"/>
						<g>
							<path class="st7" d="M246.02,222.23c-0.4,0-0.78-0.1-1.14-0.3l-98.09-56.64c-0.7-0.4-1.14-1.15-1.14-1.97V69.67
								c0-0.82,0.43-1.57,1.14-1.97c0.7-0.4,1.57-0.4,2.27,0l86.99,50.23c7.56,4.41,12.23,12.74,12.23,21.75v80.27
								c0,0.82-0.43,1.57-1.14,1.97C246.8,222.13,246.42,222.23,246.02,222.23z M150.2,162l93.53,54v-76.32
								c0-7.39-3.81-14.22-9.95-17.8L150.2,73.62V162z"/>
						</g>
					</g>
					<g>
						<path class="st6" d="M219.28,83.99l-97.53-56.32v111.57l116.73,67.4v-89.39C238.48,103.53,231.16,90.85,219.28,83.99z"/>
						<g>
							<path class="st7" d="M236.21,208.33c-0.4,0-0.78-0.1-1.14-0.3l-98.09-56.64c-0.7-0.4-1.14-1.15-1.14-1.97V55.78
								c0-0.82,0.43-1.57,1.14-1.97c0.7-0.4,1.57-0.4,2.27,0l86.99,50.23c7.56,4.41,12.23,12.74,12.23,21.75v80.26
								c0,0.82-0.43,1.57-1.14,1.97C237,208.22,236.61,208.33,236.21,208.33z M140.41,148.11l93.53,54v-76.32
								c0-7.39-3.81-14.22-9.95-17.8l-83.58-48.26V148.11z"/>
						</g>
					</g>
					<g>
						<path class="st6" d="M207.32,80.56l-97.53-56.32v111.57l116.73,67.4v-89.39C226.52,100.1,219.2,87.42,207.32,80.56z"/>
						<g>
							<path class="st7" d="M224.25,204.89c-0.4,0-0.78-0.1-1.14-0.3l-98.09-56.64c-0.7-0.4-1.14-1.15-1.14-1.97V52.34
								c0-0.82,0.43-1.57,1.14-1.97s1.57-0.4,2.27,0l86.99,50.23c7.56,4.41,12.23,12.74,12.23,21.75v80.27
								c0,0.82-0.43,1.57-1.14,1.97C225.04,204.8,224.65,204.89,224.25,204.89z M128.45,144.67l93.53,54v-76.32
								c0-7.39-3.81-14.22-9.95-17.8l-83.58-48.26V144.67z"/>
						</g>
					</g>
					<g>
						
							<linearGradient id="SVGID_5_" gradientUnits="userSpaceOnUse" x1="46.3361" y1="218.0502" x2="225.5846" y2="218.0502" gradientTransform="matrix(1 0 0 -1 0 375)">
							<stop  offset="8.100000e-07" style="stop-color:#F68A5E"/>
							<stop  offset="1" style="stop-color:#8B2063"/>
						</linearGradient>
						<path class="st8" d="M170.3,116.7L62.9,55.39v136.04l106.36,61.5c12.87,7.44,33.82,7.44,46.68,0c6.2-3.6,9.19-8.3,9.63-13
							c0.02-0.16,0.02-131.61,0.02-131.61C225.58,113.25,209.3,134.47,170.3,116.7z"/>
						<path class="st6" d="M192.61,240.31c-5.52,0-10.83-1.17-14.23-3.13l-97.24-56.24V86.78l80.13,45.75
							c9.05,5.25,19.83,8.03,31.13,8.03c14.04,0,24.23-0.45,33.2-8.33c0-1.95,0-3.87,0-5.79c-5.66,4.99-13.37,9.56-33.2,9.56
							c-10.51,0-20.52-2.57-28.88-7.42L76.56,78.95v104.61l99.53,57.55c4.13,2.38,10.14,3.74,16.5,3.74
							c22.68,0,32.77-12.09,32.97-12.41c0-0.96,0-2.57,0-4.72C219.04,234.6,209.25,240.31,192.61,240.31z"/>
					</g>
					<g>
						
							<linearGradient id="SVGID_6_" gradientUnits="userSpaceOnUse" x1="58.2964" y1="214.6122" x2="237.5459" y2="214.6122" gradientTransform="matrix(1 0 0 -1 0 375)">
							<stop  offset="8.100000e-07" style="stop-color:#F68A5E"/>
							<stop  offset="1" style="stop-color:#8B2063"/>
						</linearGradient>
						<path class="st9" d="M182.26,120.14L74.86,58.83v136.04l106.36,61.5c12.87,7.44,33.82,7.44,46.68,0c6.2-3.6,9.19-8.3,9.63-13
							c0.02-0.16,0.02-131.61,0.02-131.61C237.54,116.67,221.26,137.91,182.26,120.14z"/>
						<path class="st6" d="M204.57,243.73c-5.52,0-10.83-1.17-14.23-3.13l-97.24-56.24V90.22l80.13,45.75
							c9.05,5.25,19.83,8.03,31.13,8.03c14.02,0,24.23-0.45,33.2-8.33c0-1.95,0-3.89,0-5.79c-5.66,4.99-13.37,9.56-33.2,9.56
							c-10.51,0-20.52-2.57-28.88-7.42L88.52,82.39V187l99.53,57.55c4.13,2.38,10.14,3.74,16.5,3.74
							c22.68,0,32.77-12.09,32.97-12.41c0-0.96,0-2.57,0-4.72C231,238.04,221.21,243.73,204.57,243.73z"/>
					</g>
					<g>
						
							<linearGradient id="SVGID_7_" gradientUnits="userSpaceOnUse" x1="69.0342" y1="198.1335" x2="248.2827" y2="198.1335" gradientTransform="matrix(1 0 0 -1 0 375)">
							<stop  offset="8.100000e-07" style="stop-color:#F68A5E"/>
							<stop  offset="1" style="stop-color:#8B2063"/>
						</linearGradient>
						<path class="st10" d="M193.01,136.61L85.61,75.3v136.04l106.36,61.52c12.87,7.44,33.82,7.44,46.68,0
							c6.2-3.6,9.19-8.32,9.63-13c0.02-0.16,0.02-131.61,0.02-131.61C248.29,133.16,231.99,154.38,193.01,136.61z"/>
						<path class="st6" d="M215.3,260.22c-5.52,0-10.83-1.17-14.23-3.13l-97.24-56.24v-94.14l80.13,45.75
							c9.05,5.25,19.83,8.03,31.13,8.03c14.04,0,24.23-0.45,33.2-8.33c0-1.95,0-3.89,0-5.79c-5.68,4.99-13.37,9.56-33.2,9.56
							c-10.51,0-20.52-2.57-28.88-7.42L99.25,98.87v104.61l99.53,57.55c4.13,2.38,10.14,3.74,16.5,3.74
							c22.68,0,32.77-12.09,32.97-12.42c0-0.96,0-2.57,0-4.72C241.75,254.51,231.96,260.22,215.3,260.22z"/>
					</g>
				</g>
			</g>
		</g>
		<g>
			<g id="XMLID_154_">
				<path class="st11" d="M63.8,160.41l-42.49-24.79c-3.65-2.13-8.16-2.22-11.88-0.24l-2.49,1.31l62.49,67.9l6.49-3.44
					c3.09-1.79,5.01-5.63,5.01-11.1C80.93,179.15,73.27,165.86,63.8,160.41z"/>
			</g>
			<g id="XMLID_251_">
				<path class="st12" d="M56.11,162.66l-44.9-25.92c-2.77-1.6-6.2,0.4-6.2,3.58v22.18c0,6.32,3.36,12.14,8.83,15.29l43.91,25.36
					c4.73,2.73,9,2.99,12.11,1.2c4.32-2.49,6.33-8.94,4.08-18.25C71.54,176.17,64.95,167.76,56.11,162.66z"/>
			</g>
		</g>
		<g>
			<g>
				<path class="st11" d="M58.57,172.96c-5.18-2.99-9.39-0.56-9.39,5.42c0,5.98,4.21,13.26,9.37,16.25
					c5.18,2.99,9.37,0.56,9.37-5.42C67.94,183.21,63.75,175.95,58.57,172.96z"/>
			</g>
		</g>
		<g>
			<g>
				<path class="st13" d="M56.43,176.08c-4.29-2.46-7.74-0.46-7.74,4.48c0,4.94,3.47,10.94,7.74,13.42
					c4.27,2.46,7.74,0.46,7.74-4.46C64.17,184.55,60.7,178.56,56.43,176.08z"/>
			</g>
		</g>
	</g>
</g>
</svg>
