<?xml version="1.0" encoding="utf-8"?>
<!-- Generator: Adobe Illustrator 25.2.3, SVG Export Plug-In . SVG Version: 6.00 Build 0)  -->
<svg version="1.1" id="Layer_1" xmlns="http://www.w3.org/2000/svg" xmlns:xlink="http://www.w3.org/1999/xlink" x="0px" y="0px"
	 viewBox="0 0 500 500" style="enable-background:new 0 0 500 500;" xml:space="preserve">
<style type="text/css">
	.st0{fill:url(#SVGID_1_);}
	.st1{fill:#19184C;}
	.st2{fill:#2B3278;}
	.st3{fill:#3D121D;}
	.st4{fill:url(#SVGID_2_);}
	.st5{clip-path:url(#SVGID_4_);}
	.st6{fill:#911D58;}
	.st7{fill:#EE4389;}
	.st8{fill:url(#SVGID_5_);}
	.st9{fill:url(#SVGID_6_);}
	.st10{fill:url(#SVGID_7_);}
	.st11{fill:#5A67AF;}
	.st12{fill:#959ECF;}
	.st13{fill:#FFFFFF;}
</style>
<g>
	<linearGradient id="SVGID_1_" gradientUnits="userSpaceOnUse" x1="204.1249" y1="360.6115" x2="296.1238" y2="210.6873">
		<stop  offset="0" style="stop-color:#A1A1BC"/>
		<stop  offset="1" style="stop-color:#FFFFFF;stop-opacity:0"/>
	</linearGradient>
	<path class="st0" d="M105.48,295.59l105.06,60.74c15.44,8.92,34.46,8.93,49.9,0.02l144.13-83.14L267.67,194.5l-162.06,89.11
		C100.92,286.19,100.85,292.91,105.48,295.59z"/>
	<g>
		<path class="st1" d="M248.47,217.45l-109.9-63.46c-1.11-0.64-1.71-1.47-1.78-2.31h-0.01v33.8c-0.09,0.97,0.52,1.95,1.79,2.68
			l85.77,49.52c10.11,5.84,22.92,2.12,28.64-8.06c0.03-0.05,0.06-0.1,0.09-0.15C255.5,225.39,253.68,220.46,248.47,217.45z"/>
		<path class="st2" d="M255.45,235.91c-11.3,6.54-27.33,6.48-38.62-0.06l-110.64-63.16c-1.19-0.69-1.79-1.6-1.79-2.5v119.41
			c0.03,0.88,0.63,1.76,1.79,2.42l109.72,63.46c11.3,6.53,29.69,6.53,40.99,0c5.45-3.16,8.07-7.29,8.45-11.42
			c0.01-0.14,0.02-120.59,0.02-120.59C265.37,227.76,261.09,232.64,255.45,235.91z"/>
		<path class="st3" d="M104.41,170.07v0.11c0-0.04,0-0.07,0.01-0.11C104.41,170.07,104.41,170.07,104.41,170.07z"/>
		<linearGradient id="SVGID_2_" gradientUnits="userSpaceOnUse" x1="104.3998" y1="195.1245" x2="265.3722" y2="195.1245">
			<stop  offset="8.100000e-07" style="stop-color:#92489C"/>
			<stop  offset="1" style="stop-color:#4A2A7A"/>
		</linearGradient>
		<path class="st4" d="M257.15,212.44l-109.9-63.46c-2.4-1.38-6.29-1.38-8.68,0c-2.4,1.38-2.4,3.63,0,5.01l109.9,63.46
			c6.53,3.77,6.53,9.9,0,13.67c-6.53,3.77-17.15,3.77-23.68,0l-109.9-63.45c-2.4-1.38-6.29-1.38-8.68,0c-2.4,1.38-2.4,3.63,0,5.01
			l109.9,63.45c11.32,6.53,27.54,9.75,41.05,0C267.75,228.49,268.47,218.97,257.15,212.44z"/>
		<g>
			<path class="st1" d="M265.37,271.99c-0.57,2.72-2.87,5.64-6.63,8.35c-15.23,10.99-32.36,2.63-37.25-0.19l-24.05-13.88
				c-1.67-0.97-3.81-0.39-4.78,1.28c-0.97,1.67-0.39,3.81,1.28,4.78l24.05,13.88c7.7,4.44,15.7,6.66,23.35,6.66
				c7.76,0,20.49-4.05,24.03-10.75V271.99z"/>
		</g>
		<g>
			<path class="st1" d="M265.37,290.52c-0.57,2.72-2.87,5.64-6.63,8.35c-15.23,10.99-32.36,2.63-37.25-0.19l-24.05-13.88
				c-1.67-0.97-3.81-0.39-4.78,1.28c-0.97,1.67-0.39,3.81,1.28,4.78l24.05,13.88c7.7,4.44,15.7,6.66,23.35,6.66
				c7.76,0,20.49-4.05,24.03-10.75V290.52z"/>
		</g>
		<g>
			<path class="st1" d="M265.37,309.06c-0.57,2.72-2.87,5.64-6.63,8.35c-15.23,10.99-32.36,2.63-37.25-0.19l-24.05-13.88
				c-1.67-0.97-3.81-0.39-4.78,1.28c-0.97,1.67-0.39,3.82,1.28,4.78l24.05,13.88c7.7,4.44,15.7,6.66,23.35,6.66
				c7.76,0,20.49-4.05,24.03-10.75V309.06z"/>
		</g>
		<g>
			<defs>
				<path id="SVGID_3_" d="M248.47,231.12c-6.53,3.77-17.15,3.77-23.68,0l-109.9-63.45c-2.4-1.39-6.29-1.39-8.69,0l32.37-18.69
					l15.41-14.23l94.64,55.66l-0.15,27.04C254.99,221.22,254.99,227.35,248.47,231.12z"/>
			</defs>
			<clipPath id="SVGID_4_">
				<use xlink:href="#SVGID_3_"  style="overflow:visible;"/>
			</clipPath>
			<g class="st5">
				<g>
					<path class="st6" d="M235.15,193.55l-60.99-35.22v69.77l73,42.15v-55.9C247.16,205.77,242.58,197.84,235.15,193.55z"/>
					<g>
						<path class="st7" d="M245.74,271.3c-0.25,0-0.49-0.06-0.71-0.19l-61.34-35.42c-0.44-0.25-0.71-0.72-0.71-1.23V175.9
							c0-0.51,0.27-0.98,0.71-1.23c0.44-0.25,0.98-0.25,1.42,0l54.4,31.41c4.73,2.76,7.65,7.97,7.65,13.6v50.2
							c0,0.51-0.27,0.98-0.71,1.23C246.23,271.24,245.99,271.3,245.74,271.3z M185.82,233.64l58.49,33.77v-47.73
							c0-4.62-2.38-8.89-6.22-11.13l-52.27-30.18V233.64z"/>
					</g>
				</g>
				<g>
					<path class="st6" d="M229.02,184.85l-60.99-35.22v69.77l73,42.15v-55.9C241.03,197.07,236.45,189.14,229.02,184.85z"/>
					<g>
						<path class="st7" d="M239.61,262.61c-0.25,0-0.49-0.06-0.71-0.19L177.56,227c-0.44-0.25-0.71-0.72-0.71-1.23v-58.56
							c0-0.51,0.27-0.98,0.71-1.23c0.44-0.25,0.98-0.25,1.42,0l54.4,31.41c4.73,2.76,7.65,7.97,7.65,13.6v50.19
							c0,0.51-0.27,0.98-0.71,1.23C240.1,262.54,239.86,262.61,239.61,262.61z M179.7,224.95l58.49,33.77v-47.73
							c0-4.62-2.38-8.89-6.22-11.13l-52.27-30.18V224.95z"/>
					</g>
				</g>
				<g>
					<path class="st6" d="M221.54,182.71l-60.99-35.22v69.77l73,42.15v-55.9C233.55,194.93,228.97,187,221.54,182.71z"/>
					<g>
						<path class="st7" d="M232.13,260.46c-0.25,0-0.49-0.06-0.71-0.19l-61.34-35.42c-0.44-0.25-0.71-0.72-0.71-1.23v-58.56
							c0-0.51,0.27-0.98,0.71-1.23c0.44-0.25,0.98-0.25,1.42,0l54.4,31.41c4.73,2.76,7.65,7.97,7.65,13.6v50.2
							c0,0.51-0.27,0.98-0.71,1.23C232.62,260.4,232.38,260.46,232.13,260.46z M172.22,222.8l58.49,33.77v-47.73
							c0-4.62-2.38-8.89-6.22-11.13l-52.27-30.18V222.8z"/>
					</g>
				</g>
				<g>
					<linearGradient id="SVGID_5_" gradientUnits="userSpaceOnUse" x1="120.8697" y1="230.4881" x2="232.9634" y2="230.4881">
						<stop  offset="8.100000e-07" style="stop-color:#F68A5E"/>
						<stop  offset="1" style="stop-color:#8B2063"/>
					</linearGradient>
					<path class="st8" d="M198.39,205.31l-67.16-38.34v85.07l66.51,38.46c8.05,4.65,21.15,4.65,29.19,0
						c3.88-2.25,5.75-5.19,6.02-8.13c0.01-0.1,0.01-82.3,0.01-82.3C232.96,203.15,222.78,216.42,198.39,205.31z"/>
					<path class="st6" d="M212.34,282.61c-3.45,0-6.77-0.73-8.9-1.96l-60.81-35.17V186.6l50.11,28.61
						c5.66,3.28,12.4,5.02,19.47,5.02c8.78,0,15.15-0.28,20.76-5.21c0-1.22,0-2.42,0-3.62c-3.54,3.12-8.36,5.98-20.76,5.98
						c-6.57,0-12.83-1.61-18.06-4.64l-54.38-31.04v65.42l62.24,35.99c2.58,1.49,6.34,2.34,10.32,2.34c14.18,0,20.49-7.56,20.62-7.76
						c0-0.6,0-1.61,0-2.95C228.87,279.04,222.75,282.61,212.34,282.61z"/>
				</g>
				<g>
					<linearGradient id="SVGID_6_" gradientUnits="userSpaceOnUse" x1="128.3491" y1="232.6335" x2="240.4434" y2="232.6335">
						<stop  offset="8.100000e-07" style="stop-color:#F68A5E"/>
						<stop  offset="1" style="stop-color:#8B2063"/>
					</linearGradient>
					<path class="st9" d="M205.87,207.46l-67.16-38.34v85.07l66.51,38.46c8.05,4.65,21.15,4.65,29.19,0
						c3.88-2.25,5.75-5.19,6.02-8.13c0.01-0.1,0.01-82.3,0.01-82.3C240.44,205.29,230.26,218.57,205.87,207.46z"/>
					<path class="st6" d="M219.82,284.75c-3.45,0-6.77-0.73-8.9-1.96l-60.81-35.17v-58.87l50.11,28.61
						c5.66,3.28,12.4,5.02,19.47,5.02c8.77,0,15.15-0.28,20.76-5.21c0-1.22,0-2.43,0-3.62c-3.54,3.12-8.36,5.98-20.76,5.98
						c-6.57,0-12.83-1.61-18.06-4.64l-54.38-31.04v65.42l62.24,35.99c2.58,1.49,6.34,2.34,10.32,2.34c14.18,0,20.49-7.56,20.62-7.76
						c0-0.6,0-1.61,0-2.95C236.35,281.19,230.23,284.75,219.82,284.75z"/>
				</g>
				<g>
					<linearGradient id="SVGID_7_" gradientUnits="userSpaceOnUse" x1="135.064" y1="242.9387" x2="247.1577" y2="242.9387">
						<stop  offset="8.100000e-07" style="stop-color:#F68A5E"/>
						<stop  offset="1" style="stop-color:#8B2063"/>
					</linearGradient>
					<path class="st10" d="M212.59,217.76l-67.16-38.34v85.07l66.51,38.47c8.05,4.65,21.15,4.65,29.19,0
						c3.88-2.25,5.75-5.2,6.02-8.13c0.01-0.1,0.01-82.3,0.01-82.3C247.16,215.6,236.97,228.87,212.59,217.76z"/>
					<path class="st6" d="M226.53,295.06c-3.45,0-6.77-0.73-8.9-1.96l-60.81-35.17v-58.87l50.11,28.61
						c5.66,3.28,12.4,5.02,19.47,5.02c8.78,0,15.15-0.28,20.76-5.21c0-1.22,0-2.43,0-3.62c-3.55,3.12-8.36,5.98-20.76,5.98
						c-6.57,0-12.83-1.61-18.06-4.64l-54.38-31.04v65.42l62.24,35.99c2.58,1.49,6.34,2.34,10.32,2.34c14.18,0,20.49-7.56,20.62-7.77
						c0-0.6,0-1.61,0-2.95C243.07,291.49,236.95,295.06,226.53,295.06z"/>
				</g>
			</g>
		</g>
		<g>
			<g id="XMLID_154_">
				<path class="st11" d="M131.79,232.64l-26.57-15.5c-2.28-1.33-5.1-1.39-7.43-0.15l-1.56,0.82l39.08,42.46l4.06-2.15
					c1.93-1.12,3.13-3.52,3.13-6.94C142.5,244.36,137.71,236.05,131.79,232.64z"/>
			</g>
			<g id="XMLID_251_">
				<path class="st12" d="M126.98,234.05L98.9,217.84c-1.73-1-3.88,0.25-3.88,2.24v13.87c0,3.95,2.1,7.59,5.52,9.56L128,259.37
					c2.96,1.71,5.63,1.87,7.57,0.75c2.7-1.56,3.96-5.59,2.55-11.41C136.63,242.5,132.51,237.24,126.98,234.05z"/>
			</g>
		</g>
		<g>
			<g>
				<path class="st11" d="M128.52,240.49c-3.24-1.87-5.87-0.35-5.87,3.39c0,3.74,2.63,8.29,5.86,10.16
					c3.24,1.87,5.86,0.35,5.86-3.39C134.38,246.9,131.76,242.36,128.52,240.49z"/>
			</g>
		</g>
		<g>
			<g>
				<path class="st13" d="M127.18,242.44c-2.68-1.54-4.84-0.29-4.84,2.8c0,3.09,2.17,6.84,4.84,8.39c2.67,1.54,4.84,0.29,4.84-2.79
					C132.02,247.74,129.85,243.99,127.18,242.44z"/>
			</g>
		</g>
	</g>
</g>
</svg>
